<svg width="32" height="32" viewBox="0 0 32 32" fill="none" xmlns="http://www.w3.org/2000/svg">
  <path d="M16 2C9 2 5 7 5 14V26C5 26.8 5.5 27 6 27C6.5 27 7 26.5 7 26V23C7 22 7.8 21 9 21C10.2 21 11 22 11 23V26C11 26.5 11.5 27 12 27C12.5 27 13 26.5 13 26V23C13 22 13.8 21 15 21C16.2 21 17 22 17 23V26C17 26.5 17.5 27 18 27C18.5 27 19 26.5 19 26V23C19 22 19.8 21 21 21C22.2 21 23 22 23 23V26C23 26.5 23.5 27 24 27C24.5 27 25 26.5 25 26V23C25 22 25.8 21 27 27C27.5 27 27 26.8 27 26V14C27 7 23 2 16 2Z" fill="white" fill-opacity="0.9"/>
  <circle cx="12" cy="11" r="2" fill="black"/>
  <circle cx="20" cy="11" r="2" fill="black"/>
</svg>
