<svg width="24" height="24" viewBox="0 0 24 24" fill="none" xmlns="http://www.w3.org/2000/svg">
  <path d="M12 4C10.5 4 9.5 5 9.5 6.5C9.5 5.5 8.5 4.5 7 4.5C5.5 4.5 4.5 5.5 4.5 7C4.5 8.5 5.5 9.5 7 9.5C5.5 9.5 4 10.5 4 12.5C4 14.5 5.5 16 7 16C5.5 16 4.5 17 4.5 18.5C4.5 20 6 21 7.5 21C9 21 10 20 10 18.5" stroke="currentColor" stroke-width="1.5" stroke-linecap="round"/>
  <path d="M12 4C13.5 4 14.5 5 14.5 6.5C14.5 5.5 15.5 4.5 17 4.5C18.5 4.5 19.5 5.5 19.5 7C19.5 8.5 18.5 9.5 17 9.5C18.5 9.5 20 10.5 20 12.5C20 14.5 18.5 16 17 16C18.5 16 19.5 17 19.5 18.5C19.5 20 18 21 16.5 21C15 21 14 20 14 18.5" stroke="currentColor" stroke-width="1.5" stroke-linecap="round"/>
  <path d="M12 4V21" stroke="currentColor" stroke-width="1.5" stroke-linecap="round"/>
</svg>
